# xmcd CD database file
#
# Track frame offsets:
#	300
#	25356
#	46617
#	71899
#	86269
#	110225
#	131591
#	144271
#
# Disc length: 2343 seconds
#
# Revision: 0
# Processed by: cddbd v1.5.2PL0 Copyright (c) Steve Scherf et al.
# Submitted via: CDex 1.70beta3
#
DISCID=6c092308
DTITLE=The Modern Jazz Quartet - European Concert Disc 1
DYEAR=1960
DGENRE=Jazz
TTITLE0=DJango
TTITLE1=Bluesology
TTITLE2=I Should Care
TTITLE3=La Ronde
TTITLE4=I Remember Clifford
TTITLE5=Festival Sketch
TTITLE6=Vendome
TTITLE7=Odds Against Tomorrow
EXTD=YEAR: 1960
EXTT0=
EXTT1=
EXTT2=
EXTT3=
EXTT4=
EXTT5=
EXTT6=
EXTT7=
PLAYORDER=
